<svg width="150" height="150" viewBox="0 0 150 150" fill="none" xmlns="http://www.w3.org/2000/svg">
<g clip-path="url(#clip0_190_104)">
<rect width="150" height="150" rx="40" fill="#F0F3FC" style="fill:#F0F3FC;fill:color(display-p3 0.9412 0.9529 0.9882);fill-opacity:1;"/>
<path d="M44.2882 120.405C39.4447 120.405 35.4941 116.454 35.4941 111.611C35.4941 106.767 39.4447 102.816 44.2882 102.816C49.1318 102.816 53.0823 106.767 53.0823 111.611C53.0823 116.454 49.1318 120.405 44.2882 120.405Z" fill="#2A59CA" style="fill:#2A59CA;fill:color(display-p3 0.1647 0.3490 0.7922);fill-opacity:1;"/>
<path d="M53.1365 33.0047H53.0823C43.3682 33.0047 35.4941 40.8788 35.4941 50.593V57.3577C42.7729 54.1106 62.6071 50.593 96.1059 50.593C105.82 50.593 113.694 42.7188 113.694 33.0047V29.2165C106.415 31.1106 86.6082 33.0047 53.1365 33.0047Z" fill="#2A59CA" style="fill:#2A59CA;fill:color(display-p3 0.1647 0.3490 0.7922);fill-opacity:1;"/>
<path d="M53.0823 67.9106C43.3682 67.9106 35.4941 75.7847 35.4941 85.4989V92.2636C39.7153 89.0165 51.2153 85.4989 70.6706 85.4989C80.3847 85.4989 88.2588 77.6247 88.2588 67.9106V64.1224C84.0376 66.0165 72.5376 67.9106 53.0823 67.9106Z" fill="#2A59CA" style="fill:#2A59CA;fill:color(display-p3 0.1647 0.3490 0.7922);fill-opacity:1;"/>
</g>
<defs>
<clipPath id="clip0_190_104">
<rect width="150" height="150" fill="white" style="fill:white;fill-opacity:1;"/>
</clipPath>
</defs>
</svg>
